<svg class="ico-photo" width="142" height="142" viewBox="0 0 142 142" fill="none" xmlns="http://www.w3.org/2000/svg">
<g class="ico-photo__fill" clip-path="url(#clip0_492_851)" fill="#FF4B12">
<path d="M113.615 48.3144C112.093 67.1463 110.821 69.4411 90.3432 70.7132C75.1281 69.2914 72.6587 67.0715 71.4365 49.7112C72.7585 31.1288 75.4772 29.8816 93.7105 28.41C73.407 26.7637 72.3344 25.4168 71.0125 0C69.6905 25.4168 68.618 26.7637 48.3144 28.41C66.5477 29.8816 69.2665 31.1288 70.5884 49.7112C69.3662 67.0964 66.8719 69.2914 51.6817 70.7132C31.2285 69.4411 29.9564 67.1463 28.41 48.3144C26.7637 68.618 25.4168 69.6905 0 71.0125C25.4168 72.3344 26.7637 73.407 28.41 93.7105C29.9315 74.8786 31.2036 72.5839 51.6817 71.3118C66.8969 72.7335 69.3662 74.9534 70.5884 92.3137C69.2665 110.896 66.5477 112.143 48.3144 113.615C68.618 115.261 69.6905 116.608 71.0125 142.025C72.3344 116.608 73.407 115.261 93.7105 113.615C75.4772 112.143 72.7585 110.896 71.4365 92.3137C72.6587 74.9285 75.153 72.7335 90.3432 71.3118C110.796 72.5839 112.068 74.8786 113.615 93.7105C115.261 73.407 116.608 72.3344 142.025 71.0125C116.608 69.6905 115.261 68.618 113.615 48.3144Z" />
</g>
</svg>
