<svg class="ico-star" width="26" height="26" viewBox="0 0 26 26" fill="none" xmlns="http://www.w3.org/2000/svg">
<path class="ico-star__path" d="M12.2585 1.92945C12.5195 1.2502 13.4805 1.2502 13.7416 1.92945L14.6605 4.32041C14.854 4.82395 15.4824 4.99232 15.9018 4.65301L17.8931 3.04184C18.4588 2.58412 19.291 3.06462 19.1775 3.7834L18.7778 6.3135C18.6937 6.84634 19.1537 7.30634 19.6865 7.22217L22.2166 6.82251C22.9354 6.70897 23.4159 7.54122 22.9582 8.10693L21.347 10.0982C21.0077 10.5176 21.1761 11.146 21.6796 11.3395L24.0706 12.2584C24.7498 12.5195 24.7498 13.4805 24.0706 13.7416L21.6796 14.6605C21.1761 14.854 21.0077 15.4824 21.347 15.9018L22.9582 17.8931C23.4159 18.4588 22.9354 19.291 22.2166 19.1775L19.6865 18.7778C19.1537 18.6936 18.6937 19.1536 18.7778 19.6865L19.1775 22.2166C19.291 22.9354 18.4588 23.4159 17.8931 22.9581L15.9018 21.347C15.4824 21.0077 14.854 21.176 14.6605 21.6796L13.7416 24.0705C13.4805 24.7498 12.5195 24.7498 12.2585 24.0705L11.3395 21.6796C11.146 21.176 10.5176 21.0077 10.0983 21.347L8.10696 22.9581C7.54125 23.4159 6.709 22.9354 6.82254 22.2166L7.2222 19.6865C7.30637 19.1536 6.84637 18.6936 6.31353 18.7778L3.78343 19.1775C3.06466 19.291 2.58415 18.4588 3.04187 17.8931L4.65304 15.9018C4.99235 15.4824 4.82398 14.854 4.32044 14.6605L1.92948 13.7416C1.25023 13.4805 1.25023 12.5195 1.92948 12.2584L4.32044 11.3395C4.82398 11.146 4.99235 10.5176 4.65304 10.0982L3.04187 8.10693C2.58415 7.54122 3.06466 6.70897 3.78343 6.82251L6.31353 7.22217C6.84637 7.30634 7.30637 6.84634 7.2222 6.3135L6.82254 3.7834C6.709 3.06463 7.54125 2.58412 8.10696 3.04184L10.0983 4.65301C10.5176 4.99232 11.146 4.82395 11.3395 4.32041L12.2585 1.92945Z" fill="black"/>
</svg>
