<svg width="280" height="240" viewBox="0 0 280 240" fill="none" xmlns="http://www.w3.org/2000/svg">
<path d="M106.032 119.377C136.29 121.804 137.899 123.819 139.84 161.535C141.78 123.778 143.39 121.804 173.647 119.377C143.39 116.95 141.78 114.935 139.84 77.2192C137.899 114.976 136.29 116.95 106.032 119.377Z" fill="#FF2E12"/>
<path d="M225.038 43.8215H130.8C91.8327 43.8215 64.6301 52.4999 41.1839 75.8615C20.3795 96.5908 12 119.582 12 119.582H98.6023C136.042 47.8111 212.737 43.9861 225.038 43.8215Z" fill="#FF2E12"/>
<path d="M182.397 119.418C144.958 191.189 68.2209 195.014 55.9612 195.138H150.2C189.167 195.138 216.328 186.459 239.774 163.098C260.579 142.368 268.958 119.377 268.958 119.377H182.356L182.397 119.418Z" fill="#FF2E12"/>
</svg>
