<svg width="280" height="240" viewBox="0 0 280 240" fill="none" xmlns="http://www.w3.org/2000/svg">
<path d="M182.323 32.9948C167.782 32.9948 154.094 36.6642 142.031 43.0245C141.259 33.3618 140.65 22.4351 140 10C139.35 22.4351 138.741 33.4025 137.969 43.0245C125.906 36.6234 112.218 32.9948 97.6769 32.9948C49.8706 32.9948 11 72.0534 11 120C11 167.947 49.8706 207.005 97.6769 207.005C112.218 207.005 125.906 203.336 137.969 196.976C138.741 206.638 139.35 217.565 140 230C140.65 217.565 141.259 206.597 142.031 196.976C154.094 203.377 167.782 207.005 182.323 207.005C230.129 207.005 269 167.987 269 120C269 72.0126 230.129 32.9948 182.323 32.9948ZM137.319 189.474C116.401 175.775 102.064 152.861 100.033 126.483C125.825 133.536 133.42 148.458 137.319 189.474ZM100.033 113.517C102.064 87.1794 116.401 64.2253 137.319 50.5263C133.461 91.5011 125.825 106.423 100.033 113.517ZM142.681 50.5671C163.599 64.2661 177.936 87.1794 179.967 113.558C154.175 106.505 146.58 91.5827 142.681 50.5671ZM179.967 126.483C177.936 152.861 163.599 175.775 142.681 189.474C146.539 148.499 154.175 133.577 179.967 126.483ZM15.0617 120C15.0617 74.2958 52.1045 37.0719 97.6769 37.0719C111.487 37.0719 124.525 40.5374 135.979 46.6123C113.233 61.1268 97.6769 85.997 95.8898 114.577C84.7607 117.105 70.5853 118.532 52.3889 120.041C70.5853 121.509 84.7607 122.936 95.8898 125.504C97.6769 154.085 113.193 178.914 135.979 193.469C124.525 199.503 111.487 203.01 97.6769 203.01C52.1045 203.01 15.0617 165.827 15.0617 120.082V120ZM182.323 202.928C168.513 202.928 155.475 199.463 144.021 193.388C166.767 178.873 182.323 154.003 184.11 125.423C195.239 122.895 209.415 121.468 227.611 119.959C209.415 118.491 195.239 117.064 184.11 114.496C182.323 85.9155 166.807 61.086 144.021 46.5308C155.475 40.4967 168.513 36.9904 182.323 36.9904C227.895 36.9904 264.938 74.1735 264.938 119.918C264.938 165.663 227.895 202.847 182.323 202.847V202.928Z" fill="#FF2E12"/>
</svg>
