<svg width="100" height="100" viewBox="0 0 100 100" fill="none" xmlns="http://www.w3.org/2000/svg">
<path d="M29.5082 17.6027L31.1617 16.5657C31.5592 17.0957 31.9855 17.4184 32.4406 17.5336C32.8958 17.6488 33.397 17.5681 33.9385 17.2974C34.5146 17.0093 34.8891 16.6694 35.0562 16.2834C35.2233 15.8974 35.229 15.5345 35.0677 15.2118C34.964 15.0044 34.8142 14.8547 34.6183 14.7682C34.4225 14.6818 34.1459 14.6645 33.783 14.7049C33.5353 14.7394 32.9937 14.8489 32.1584 15.0333C31.081 15.2752 30.2629 15.3155 29.7041 15.1658C28.9148 14.9468 28.3503 14.4917 27.9988 13.7889C27.7742 13.3395 27.6935 12.8498 27.7511 12.3313C27.8087 11.8128 28.0276 11.3289 28.4079 10.8853C28.7881 10.4417 29.3181 10.0499 29.9979 9.70999C31.1098 9.15693 32.0662 8.98409 32.8727 9.19149C33.6793 9.39889 34.2957 9.90011 34.7336 10.7009L32.9822 11.6688C32.6769 11.254 32.3485 11.0062 31.997 10.9313C31.6456 10.8565 31.2193 10.9486 30.7123 11.1964C30.1938 11.4556 29.8366 11.7667 29.6523 12.1239C29.5313 12.3543 29.5255 12.5848 29.6408 12.8152C29.7445 13.0226 29.923 13.1609 30.1765 13.2185C30.4992 13.2934 31.1444 13.2185 32.1123 12.9881C33.0859 12.7576 33.8348 12.6482 34.3591 12.6597C34.8834 12.6712 35.3615 12.8095 35.7878 13.0745C36.2142 13.3395 36.5656 13.7485 36.8421 14.3074C37.0956 14.8143 37.1936 15.3616 37.1302 15.9435C37.0668 16.5254 36.8364 17.0554 36.4273 17.5278C36.0183 18.0002 35.4307 18.4265 34.6587 18.8125C33.541 19.3714 32.5501 19.5442 31.6917 19.3253C30.8333 19.1064 30.0959 18.5302 29.4852 17.5969L29.5082 17.6027Z" fill="white"/>
<path d="M44.6657 11.6918L46.6878 11.905C46.6129 13.0226 46.2903 13.9098 45.72 14.5608C45.1496 15.2118 44.3431 15.6439 43.3003 15.8571C42.0156 16.1221 40.8634 15.8974 39.8552 15.1888C38.847 14.4802 38.1844 13.3625 37.8733 11.8358C37.545 10.2227 37.7005 8.88615 38.3515 7.82035C39.0025 6.75454 40.005 6.08626 41.3646 5.80972C42.5514 5.56776 43.5884 5.71754 44.4698 6.27061C44.9941 6.59323 45.4492 7.12325 45.8294 7.85492L43.9859 8.71332C43.767 8.23515 43.4501 7.88372 43.0238 7.67056C42.6032 7.45164 42.1308 7.39979 41.6065 7.50349C40.8864 7.65328 40.3564 8.02775 40.0165 8.63843C39.6766 9.24334 39.6247 10.1248 39.8609 11.2828C40.1144 12.5099 40.5119 13.3337 41.0592 13.7658C41.6065 14.1979 42.2345 14.3362 42.9374 14.1921C43.4559 14.0827 43.8707 13.8292 44.176 13.4201C44.4813 13.0111 44.6426 12.435 44.6599 11.6918H44.6657Z" fill="white"/>
<path d="M48.4104 14.8316L49.0499 4.95708L53.2497 5.22785C54.304 5.29699 55.0645 5.43525 55.5311 5.64265C55.9978 5.85005 56.3607 6.18996 56.62 6.66237C56.8792 7.13478 56.9887 7.6648 56.9484 8.24667C56.9023 8.98986 56.643 9.58325 56.1764 10.0384C55.7097 10.4935 55.0357 10.7528 54.1657 10.8276C54.5805 11.1042 54.9205 11.4038 55.1797 11.7264C55.439 12.0432 55.7846 12.6021 56.2109 13.4029L57.294 15.4077L54.9089 15.2522L53.6069 13.0111C53.146 12.2103 52.8234 11.7033 52.6506 11.4902C52.472 11.277 52.2819 11.1272 52.0745 11.0408C51.8671 10.9544 51.5387 10.8968 51.0778 10.8622L50.6745 10.8334L50.4095 14.9584L48.4162 14.8316H48.4104ZM50.7725 9.26063L52.2473 9.35857C53.2036 9.42194 53.8028 9.41618 54.0448 9.35857C54.2867 9.29519 54.4826 9.16845 54.6324 8.97833C54.7822 8.78822 54.8628 8.54625 54.8801 8.25243C54.9032 7.91829 54.8283 7.64752 54.667 7.4286C54.5056 7.20967 54.2579 7.06565 53.9411 6.99075C53.7798 6.95619 53.2958 6.91586 52.4893 6.86401L50.9338 6.76607L50.7725 9.27215V9.26063Z" fill="white"/>
<path d="M59.0109 10.8392C59.3508 9.88859 59.7771 9.14541 60.2956 8.60386C60.6758 8.20635 61.1194 7.88373 61.6206 7.636C62.1218 7.38827 62.6231 7.25577 63.1243 7.22696C63.7926 7.19239 64.5069 7.30762 65.2674 7.57839C66.6386 8.07384 67.5834 8.89192 68.1019 10.0384C68.6204 11.1848 68.6089 12.5157 68.0616 14.0366C67.52 15.5402 66.6904 16.5715 65.567 17.1245C64.4436 17.6776 63.1992 17.7122 61.828 17.2225C60.4454 16.727 59.4948 15.9089 58.9821 14.7682C58.4693 13.6275 58.4751 12.3198 59.0109 10.8392ZM60.9696 11.4729C60.5894 12.5272 60.5491 13.4144 60.8371 14.1345C61.1309 14.8547 61.6494 15.3501 62.3984 15.6151C63.1473 15.8859 63.8617 15.8341 64.5358 15.4653C65.2098 15.0966 65.7398 14.3765 66.1316 13.2934C66.5176 12.2276 66.5694 11.3462 66.2871 10.6548C66.0048 9.96349 65.4806 9.47379 64.7028 9.19726C63.9251 8.92073 63.2049 8.96105 62.5424 9.324C61.8799 9.68695 61.3499 10.4013 60.9696 11.4729Z" fill="white"/>
<path d="M67.2031 19.3426L72.7799 11.2597L74.4276 12.3947L69.8014 19.1006L73.8918 21.9235L72.9469 23.2947L67.2146 19.3368L67.2031 19.3426Z" fill="white"/>
<path d="M73.6154 23.986L80.8628 17.3607L82.2109 18.8356L76.1963 24.3317L79.5493 28.0015L78.3164 29.1249L73.6154 23.9803V23.986Z" fill="white"/>
<path d="M89.8962 29.1192L91.2846 32.5009C91.5957 33.2614 91.7801 33.8663 91.8262 34.3157C91.8895 34.9148 91.7974 35.4909 91.5496 36.044C91.3019 36.5913 90.9274 37.0868 90.4262 37.5246C89.925 37.9625 89.2452 38.36 88.3868 38.7114C87.6321 39.0225 86.9465 39.1953 86.3243 39.2299C85.5638 39.276 84.8898 39.1665 84.3022 38.913C83.8586 38.7229 83.438 38.3888 83.0405 37.9164C82.7409 37.5592 82.4529 37.0407 82.1763 36.3609L80.7476 32.8812L89.902 29.1249L89.8962 29.1192ZM89.1012 31.6022L83.0347 34.091L83.5993 35.4737C83.8125 35.9922 83.9911 36.3493 84.1466 36.5567C84.3425 36.8275 84.5729 37.0234 84.8322 37.1444C85.0914 37.2711 85.4544 37.3115 85.9153 37.2654C86.3762 37.2193 86.9638 37.058 87.6667 36.7641C88.3753 36.4761 88.8938 36.188 89.2221 35.9057C89.5505 35.6234 89.7752 35.3296 89.8962 35.0185C90.0172 34.7074 90.0402 34.3618 89.9769 33.9873C89.9308 33.705 89.7522 33.1865 89.4411 32.4318L89.1012 31.6022Z" fill="white"/>
<path d="M88.9744 40.6414C89.9768 40.5319 90.8352 40.5895 91.5438 40.8142C92.0681 40.9813 92.552 41.2405 92.9956 41.5804C93.4392 41.9203 93.7791 42.3179 94.0211 42.7557C94.3495 43.3376 94.5569 44.0347 94.6433 44.8355C94.8046 46.2873 94.482 47.4913 93.6754 48.465C92.8689 49.4328 91.6706 50.0032 90.069 50.1818C88.4789 50.3546 87.1884 50.0608 86.1975 49.2946C85.2066 48.5283 84.6305 47.4222 84.475 45.9819C84.3136 44.5186 84.6363 43.3088 85.4313 42.3467C86.2263 41.3846 87.4131 40.82 88.9801 40.6471L88.9744 40.6414ZM89.2624 42.6808C88.1505 42.8018 87.3325 43.1532 86.814 43.7293C86.2955 44.3054 86.0765 44.991 86.1687 45.786C86.2551 46.5753 86.6123 47.1975 87.2403 47.6411C87.8682 48.0847 88.7497 48.246 89.8904 48.1193C91.0196 47.9983 91.8319 47.6584 92.3331 47.0996C92.8343 46.5465 93.0417 45.8552 92.9495 45.0371C92.8574 44.219 92.5059 43.5911 91.8895 43.1475C91.2731 42.7096 90.3974 42.5483 89.2682 42.675L89.2624 42.6808Z" fill="white"/>
<path d="M84.9359 52.9759L95.11 52.7224L94.6837 54.7215L87.7243 54.7676L93.9981 57.9477L93.5027 60.2752L86.3819 60.5345L92.8286 63.4554L92.4081 65.4256L83.2249 61.0184L83.6627 58.9444L91.3077 58.5526L84.475 55.096L84.9244 52.9759H84.9359Z" fill="white"/>
<path d="M82.2282 63.5763L90.8122 68.5021L89.8444 70.1901L82.0957 70.4148L87.828 73.7044L86.9062 75.3117L78.3221 70.386L79.3188 68.6461L86.9004 68.3984L81.3006 65.1837L82.2224 63.5763H82.2282Z" fill="white"/>
<path d="M76.7263 76.0261L78.0226 77.4145L75.2976 79.9552L74.0013 78.5667L76.7263 76.0261Z" fill="white"/>
<path d="M70.6829 81.9082L69.0237 82.9452C68.6262 82.4152 68.1999 82.0925 67.7447 81.9773C67.2896 81.8621 66.7884 81.9428 66.2411 82.2135C65.665 82.5016 65.2905 82.8357 65.1177 83.2275C64.9448 83.6192 64.9448 83.9764 65.1061 84.299C65.2098 84.5064 65.3596 84.6562 65.5555 84.7426C65.7514 84.8291 66.0279 84.8521 66.3909 84.806C66.6386 84.7715 67.1801 84.6678 68.0155 84.4776C69.0928 84.2357 69.9109 84.1953 70.4697 84.3509C71.259 84.5698 71.8236 85.0249 72.175 85.7278C72.3997 86.1772 72.4803 86.6669 72.4227 87.1854C72.3651 87.7039 72.1404 88.1878 71.766 88.6314C71.3857 89.075 70.8557 89.4668 70.1759 89.8067C69.064 90.3597 68.1077 90.5326 67.3011 90.3252C66.4946 90.1178 65.8781 89.6165 65.446 88.8157L67.1974 87.8479C67.5028 88.2627 67.8254 88.5104 68.1768 88.5853C68.5282 88.6602 68.9546 88.5738 69.4615 88.3203C69.98 88.061 70.3372 87.7499 70.5216 87.3928C70.6426 87.1623 70.6483 86.9319 70.5331 86.7014C70.4294 86.494 70.2508 86.3558 69.9973 86.2981C69.6747 86.2233 69.0295 86.2981 68.0558 86.5228C67.0822 86.7475 66.3333 86.857 65.809 86.8454C65.2847 86.8339 64.8066 86.6957 64.3802 86.4306C63.9539 86.1656 63.6025 85.7566 63.326 85.1978C63.0725 84.6908 62.9803 84.1435 63.0379 83.5616C63.1013 82.9797 63.3317 82.4497 63.7408 81.9773C64.1498 81.5049 64.7374 81.0786 65.5094 80.6926C66.6271 80.1338 67.618 79.9667 68.4764 80.1856C69.3348 80.4045 70.0664 80.9806 70.6771 81.9139L70.6829 81.9082Z" fill="white"/>
<path d="M55.5427 87.8075L53.5205 87.5944C53.5954 86.4767 53.918 85.5895 54.4884 84.9385C55.0587 84.2875 55.8653 83.8554 56.908 83.6423C58.1985 83.3773 59.345 83.6019 60.3532 84.3106C61.3614 85.0192 62.0239 86.1368 62.335 87.6635C62.6634 89.2766 62.5021 90.6132 61.8568 91.679C61.2058 92.7448 60.2034 93.4131 58.8438 93.6896C57.657 93.9316 56.62 93.7761 55.7385 93.2287C55.2143 92.9061 54.7591 92.3761 54.3789 91.6444L56.2225 90.786C56.4414 91.2642 56.7582 91.6156 57.1846 91.8288C57.6109 92.0477 58.0775 92.0996 58.6018 91.9959C59.3219 91.8461 59.852 91.4716 60.1919 90.8667C60.5318 90.2618 60.5894 89.3803 60.3532 88.2223C60.0997 86.9952 59.7022 86.1656 59.1549 85.7393C58.6076 85.3072 57.9796 85.169 57.2768 85.313C56.7583 85.4224 56.3435 85.6759 56.0381 86.085C55.7328 86.494 55.5657 87.0701 55.5484 87.8133L55.5427 87.8075Z" fill="white"/>
<path d="M51.7979 84.662L51.1584 94.5365L46.9586 94.2658C45.9043 94.1966 45.1439 94.0584 44.6772 93.851C44.2106 93.6436 43.8476 93.3037 43.5884 92.8312C43.3291 92.3588 43.2196 91.8288 43.26 91.2469C43.3061 90.5038 43.5653 89.9104 44.032 89.4552C44.4986 89.0001 45.1727 88.7409 46.0426 88.6717C45.6278 88.3894 45.2879 88.0956 45.0286 87.773C44.7694 87.4561 44.4237 86.8973 43.9974 86.0965L42.9143 84.0916L45.2994 84.2472L46.6014 86.4883C47.0623 87.2891 47.3849 87.796 47.5578 88.0092C47.7306 88.2224 47.9265 88.3721 48.1281 88.4586C48.3355 88.545 48.6639 88.6026 49.1248 88.6372L49.5281 88.666L49.7931 84.541L51.7864 84.6735L51.7979 84.662ZM49.4301 90.233L47.9553 90.135C46.9989 90.0717 46.3998 90.0774 46.1578 90.135C45.9158 90.1984 45.72 90.3252 45.5702 90.5153C45.4204 90.7054 45.3397 90.9474 45.3224 91.2412C45.2994 91.5753 45.3743 91.8461 45.5356 92.065C45.6969 92.2782 45.9389 92.428 46.2615 92.5029C46.4228 92.5374 46.9068 92.5777 47.7133 92.6296L49.2688 92.7333L49.4301 90.2272V90.233Z" fill="white"/>
<path d="M41.2091 88.6602C40.8692 89.6108 40.4428 90.354 39.9243 90.8955C39.5441 91.293 39.1005 91.6156 38.5993 91.8634C38.0981 92.1111 37.5968 92.2436 37.0956 92.2724C36.4273 92.307 35.713 92.1917 34.9525 91.921C33.5814 91.4255 32.6365 90.6074 32.118 89.461C31.5995 88.3145 31.6111 86.9837 32.1584 85.4628C32.6999 83.9591 33.5295 82.9279 34.6529 82.3748C35.7763 81.8218 37.0207 81.7872 38.3919 82.2769C39.7745 82.7723 40.7251 83.5904 41.2379 84.7311C41.7506 85.8718 41.7448 87.1796 41.2091 88.6602ZM39.2503 88.0265C39.6305 86.9722 39.6708 86.085 39.3828 85.3648C39.089 84.6447 38.5705 84.1492 37.8215 83.8842C37.0726 83.6135 36.3582 83.6653 35.6842 84.034C35.0101 84.4027 34.4801 85.1229 34.0883 86.206C33.7023 87.2718 33.6505 88.1532 33.9328 88.8445C34.2093 89.5359 34.7393 90.0256 35.5171 90.3021C36.2948 90.5786 37.015 90.5383 37.6775 90.1754C38.34 89.8124 38.87 89.098 39.2503 88.0265Z" fill="white"/>
<path d="M33.011 80.151L27.4343 88.2339L25.7924 87.0989L30.4185 80.393L26.3281 77.5701L27.273 76.1989L33.0053 80.1568L33.011 80.151Z" fill="white"/>
<path d="M26.6047 75.5134L19.363 82.1386L18.0149 80.6638L24.0295 75.1677L20.6765 71.4979L21.9094 70.3745L26.6105 75.5191L26.6047 75.5134Z" fill="white"/>
<path d="M10.3181 70.3629L8.93542 66.9811C8.62432 66.2207 8.44573 65.6158 8.39388 65.1664C8.3305 64.5672 8.42268 63.9911 8.67041 63.4381C8.91814 62.8908 9.29261 62.3953 9.79382 61.9575C10.295 61.5196 10.9749 61.1221 11.8333 60.7707C12.588 60.4596 13.2735 60.2867 13.8957 60.2522C14.6562 60.2061 15.3302 60.3155 15.9179 60.569C16.3615 60.7592 16.782 61.0933 17.1796 61.5715C17.4734 61.9287 17.7614 62.4472 18.0437 63.127L19.4725 66.6067L10.3123 70.3629H10.3181ZM11.1074 67.8799L17.1738 65.3911L16.6092 64.0084C16.3961 63.4899 16.2175 63.1327 16.0619 62.9253C15.866 62.6546 15.6356 62.4587 15.3763 62.3377C15.1171 62.2167 14.7541 62.1706 14.2932 62.2167C13.8324 62.2628 13.2447 62.4241 12.5419 62.7179C11.8333 63.006 11.3148 63.294 10.9864 63.5763C10.658 63.8586 10.4333 64.1524 10.3123 64.4635C10.1913 64.7746 10.1683 65.1203 10.2317 65.4948C10.2778 65.7771 10.4564 66.2956 10.7675 67.0503L11.1074 67.8799Z" fill="white"/>
<path d="M11.2398 58.8234C10.2374 58.9329 9.37898 58.8753 8.6646 58.6506C8.14034 58.4835 7.65641 58.2243 7.21856 57.8786C6.78072 57.5329 6.43505 57.1412 6.19308 56.7033C5.8647 56.1157 5.66306 55.4244 5.57088 54.6236C5.41533 53.1718 5.73796 51.9677 6.54451 50.9941C7.35107 50.0262 8.55514 49.4559 10.1567 49.283C11.7468 49.1102 13.0373 49.4098 14.0282 50.1702C15.0191 50.9307 15.5952 52.0426 15.7508 53.4886C15.9121 54.952 15.5894 56.1618 14.7887 57.1239C13.9879 58.086 12.8068 58.6506 11.2398 58.8177V58.8234ZM10.9518 56.784C12.0637 56.663 12.8817 56.3116 13.4002 55.7355C13.9187 55.1594 14.1376 54.4738 14.0512 53.6845C13.9648 52.8952 13.6076 52.273 12.9854 51.8294C12.3632 51.3858 11.476 51.2245 10.3353 51.3455C9.20614 51.4665 8.39383 51.8064 7.89261 52.3595C7.39139 52.9125 7.18399 53.6039 7.27617 54.4219C7.36259 55.24 7.71978 55.868 8.33622 56.3116C8.95265 56.7552 9.82834 56.9107 10.9575 56.7898L10.9518 56.784Z" fill="white"/>
<path d="M15.2841 46.5119L5.10999 46.7654L5.53631 44.7663L12.4957 44.7202L6.22188 41.5343L6.71733 39.2126L13.8381 38.9534L7.39138 36.0267L7.81194 34.0564L16.9951 38.4694L16.5515 40.5434L8.90655 40.9294L15.7335 44.3919L15.2841 46.5119Z" fill="white"/>
<path d="M17.9976 35.9115L9.41357 30.98L10.3814 29.292L18.1301 29.0731L12.3978 25.7777L13.3254 24.1704L21.9094 29.1019L20.9127 30.8417L13.3311 31.0837L18.9252 34.2984L17.9976 35.9057V35.9115Z" fill="white"/>
<path d="M23.5052 23.4618L22.209 22.0733L24.934 19.5327L26.2302 20.9211L23.5052 23.4618Z" fill="white"/>
</svg>
